<svg width="339" height="59" viewBox="0 0 339 59" fill="none" xmlns="http://www.w3.org/2000/svg">
<path d="M65.84 46L56.576 12.4H63.488L70.64 40.576H68L76.448 12.4H83.984L92.384 40.576H89.744L96.896 12.4H103.808L94.496 46H87.536L79.232 17.44H81.152L72.896 46H65.84ZM122.342 46.672C119.174 46.672 116.326 45.952 113.798 44.512C111.27 43.04 109.27 41.008 107.798 38.416C106.358 35.824 105.638 32.8 105.638 29.344V29.008C105.638 25.552 106.358 22.528 107.798 19.936C109.27 17.344 111.27 15.328 113.798 13.888C116.326 12.448 119.174 11.728 122.342 11.728C125.542 11.728 128.39 12.448 130.886 13.888C133.382 15.328 135.35 17.344 136.79 19.936C138.262 22.528 138.998 25.552 138.998 29.008V29.344C138.998 32.8 138.262 35.824 136.79 38.416C135.35 41.008 133.382 43.04 130.886 44.512C128.39 45.952 125.542 46.672 122.342 46.672ZM122.342 40.048C124.23 40.048 125.894 39.632 127.334 38.8C128.806 37.936 129.958 36.704 130.79 35.104C131.622 33.504 132.038 31.584 132.038 29.344V29.008C132.038 26.8 131.622 24.896 130.79 23.296C129.958 21.696 128.806 20.48 127.334 19.648C125.894 18.784 124.23 18.352 122.342 18.352C120.454 18.352 118.774 18.784 117.302 19.648C115.83 20.48 114.678 21.696 113.846 23.296C113.014 24.896 112.598 26.8 112.598 29.008V29.344C112.598 31.584 113.014 33.504 113.846 35.104C114.678 36.704 115.83 37.936 117.302 38.8C118.774 39.632 120.454 40.048 122.342 40.048ZM144.443 46V12.4H157.115C160.699 12.4 163.579 13.328 165.755 15.184C167.963 17.04 169.067 19.712 169.067 23.2C169.067 26.752 167.963 29.456 165.755 31.312C163.579 33.168 160.699 34.096 157.115 34.096H147.563V28.432H156.779C158.379 28.432 159.659 27.984 160.619 27.088C161.611 26.16 162.107 24.896 162.107 23.296C162.107 21.76 161.611 20.512 160.619 19.552C159.659 18.592 158.379 18.112 156.779 18.112H148.427L151.259 15.568V46H144.443ZM162.347 46L154.427 31.168H161.771L170.075 46H162.347ZM178.991 41.152L178.271 31.984L193.727 12.4H201.599L178.991 41.152ZM174.911 46V12.4H181.727V46H174.911ZM194.063 46L184.607 28.528L189.455 23.536L202.175 46H194.063ZM227.165 46V12.4H233.981V46H227.165ZM205.661 46V12.4H212.477V46H205.661ZM209.165 31.744V25.6H229.757V31.744H209.165ZM254.107 46.672C250.075 46.672 246.843 45.664 244.411 43.648C242.011 41.6 240.811 38.464 240.811 34.24V12.4H247.627V33.712C247.627 36.016 248.219 37.712 249.403 38.8C250.587 39.856 252.155 40.384 254.107 40.384C256.059 40.384 257.627 39.856 258.811 38.8C259.995 37.712 260.587 36.016 260.587 33.712V12.4H267.403V34.24C267.403 37.056 266.843 39.392 265.723 41.248C264.603 43.072 263.051 44.432 261.067 45.328C259.115 46.224 256.795 46.672 254.107 46.672ZM274.24 46V12.4H280.336L297.904 38.224L295.024 38.704V12.4H301.792V46H295.84L278.368 20.464L281.056 19.984V46H274.24ZM315.312 46V15.232H322.128V46H315.312ZM306 18.544V12.4H331.536V18.544H306Z" fill="#151517"/>
<path fill-rule="evenodd" clip-rule="evenodd" d="M37.9534 5.80121C37.2287 4.96758 35.9655 4.87925 35.1318 5.60391L19.85 18.8882L13.0228 11.0344C12.2981 10.2008 11.0349 10.1125 10.2012 10.8371L1.48624 18.413C0.652614 19.1376 0.56428 20.4009 1.28894 21.2345L16.8791 39.1689C16.9895 39.296 17.1124 39.4057 17.2444 39.4978C17.9849 40.1308 19.0969 40.1435 19.8543 39.4851L45.3319 17.3377C46.1655 16.6131 46.2539 15.3498 45.5292 14.5162L37.9534 5.80121Z" fill="#F56300"/>
<path fill-rule="evenodd" clip-rule="evenodd" d="M40.175 19.1274C39.4504 18.2938 38.1871 18.2054 37.3535 18.9301L22.0717 32.2144L15.2445 24.3606C14.5198 23.527 13.2566 23.4386 12.4229 24.1633L3.70792 31.7391C2.87429 32.4638 2.78596 33.7271 3.51062 34.5607L19.1008 52.4951C19.2112 52.6221 19.3341 52.7318 19.4661 52.824C20.2066 53.457 21.3186 53.4696 22.076 52.8113L47.5536 30.6639C48.3872 29.9393 48.4755 28.676 47.7509 27.8424L40.175 19.1274Z" fill="#56ABFF"/>
</svg>
