<svg width="230" height="40" viewBox="0 0 230 40" fill="none" xmlns="http://www.w3.org/2000/svg">
<path d="M45.56 30.5L39.384 8.1H43.992L48.76 26.884H47L52.632 8.1H57.656L63.256 26.884H61.496L66.264 8.1H70.872L64.664 30.5H60.024L54.488 11.46H55.768L50.264 30.5H45.56ZM83.2278 30.948C81.1158 30.948 79.2171 30.468 77.5318 29.508C75.8464 28.5267 74.5131 27.172 73.5318 25.444C72.5718 23.716 72.0918 21.7 72.0918 19.396V19.172C72.0918 16.868 72.5718 14.852 73.5318 13.124C74.5131 11.396 75.8464 10.052 77.5318 9.092C79.2171 8.132 81.1158 7.652 83.2278 7.652C85.3611 7.652 87.2598 8.132 88.9237 9.092C90.5878 10.052 91.8998 11.396 92.8598 13.124C93.8411 14.852 94.3318 16.868 94.3318 19.172V19.396C94.3318 21.7 93.8411 23.716 92.8598 25.444C91.8998 27.172 90.5878 28.5267 88.9237 29.508C87.2598 30.468 85.3611 30.948 83.2278 30.948ZM83.2278 26.532C84.4864 26.532 85.5958 26.2547 86.5558 25.7C87.5371 25.124 88.3051 24.3027 88.8598 23.236C89.4144 22.1693 89.6918 20.8893 89.6918 19.396V19.172C89.6918 17.7 89.4144 16.4307 88.8598 15.364C88.3051 14.2973 87.5371 13.4867 86.5558 12.932C85.5958 12.356 84.4864 12.068 83.2278 12.068C81.9691 12.068 80.8491 12.356 79.8678 12.932C78.8864 13.4867 78.1184 14.2973 77.5638 15.364C77.0091 16.4307 76.7318 17.7 76.7318 19.172V19.396C76.7318 20.8893 77.0091 22.1693 77.5638 23.236C78.1184 24.3027 78.8864 25.124 79.8678 25.7C80.8491 26.2547 81.9691 26.532 83.2278 26.532ZM97.9618 30.5V8.1H106.41C108.799 8.1 110.719 8.71867 112.17 9.956C113.642 11.1933 114.378 12.9747 114.378 15.3C114.378 17.668 113.642 19.4707 112.17 20.708C110.719 21.9453 108.799 22.564 106.41 22.564H100.042V18.788H106.186C107.252 18.788 108.106 18.4893 108.746 17.892C109.407 17.2733 109.738 16.4307 109.738 15.364C109.738 14.34 109.407 13.508 108.746 12.868C108.106 12.228 107.252 11.908 106.186 11.908H100.618L102.506 10.212V30.5H97.9618ZM109.898 30.5L104.618 20.612H109.514L115.05 30.5H109.898ZM120.994 27.268L120.514 21.156L130.818 8.1H136.066L120.994 27.268ZM118.274 30.5V8.1H122.818V30.5H118.274ZM131.042 30.5L124.738 18.852L127.97 15.524L136.45 30.5H131.042ZM153.11 30.5V8.1H157.654V30.5H153.11ZM138.774 30.5V8.1H143.318V30.5H138.774ZM141.11 20.996V16.9H154.838V20.996H141.11ZM171.071 30.948C168.383 30.948 166.229 30.276 164.607 28.932C163.007 27.5667 162.207 25.476 162.207 22.66V8.1H166.751V22.308C166.751 23.844 167.146 24.9747 167.935 25.7C168.725 26.404 169.77 26.756 171.071 26.756C172.373 26.756 173.418 26.404 174.207 25.7C174.997 24.9747 175.391 23.844 175.391 22.308V8.1H179.935V22.66C179.935 24.5373 179.562 26.0947 178.815 27.332C178.069 28.548 177.034 29.4547 175.711 30.052C174.41 30.6493 172.863 30.948 171.071 30.948ZM184.493 30.5V8.1H188.557L200.269 25.316L198.349 25.636V8.1H202.861V30.5H198.893L187.245 13.476L189.037 13.156V30.5H184.493ZM211.875 30.5V9.988H216.419V30.5H211.875ZM205.667 12.196V8.1H222.691V12.196H205.667Z" fill="#151517"/>
<path fill-rule="evenodd" clip-rule="evenodd" d="M26.5812 5.10168C26.2188 4.68487 25.5872 4.6407 25.1704 5.00303L14.9095 13.9227L10.2259 8.53486C9.86353 8.11804 9.23191 8.07388 8.81509 8.43621L2.62672 13.8157C2.2099 14.178 2.16574 14.8096 2.52807 15.2264L13.1652 27.4631C13.2239 27.5306 13.2896 27.5883 13.3604 27.6361C13.7306 27.9624 14.2942 27.9723 14.6768 27.6397L31.862 12.7008C32.2788 12.3385 32.323 11.7069 31.9607 11.2901L26.5812 5.10168Z" fill="#F56300"/>
<path fill-rule="evenodd" clip-rule="evenodd" d="M28.0392 13.8443C27.6769 13.4275 27.0452 13.3833 26.6284 13.7456L16.3675 22.6653L11.6839 17.2774C11.3215 16.8606 10.6899 16.8165 10.2731 17.1788L4.08473 22.5583C3.66791 22.9206 3.62375 23.5522 3.98608 23.969L14.6232 36.2057C14.6819 36.2732 14.7476 36.3309 14.8184 36.3787C15.1886 36.705 15.7522 36.7149 16.1348 36.3823L33.32 21.4434C33.7368 21.0811 33.781 20.4495 33.4187 20.0326L28.0392 13.8443Z" fill="#56ABFF"/>
</svg>
